<svg width="18" height="21" viewBox="0 0 18 21" fill="none" xmlns="http://www.w3.org/2000/svg">
<path fill-rule="evenodd" clip-rule="evenodd" d="M0.672766 3.27441C0 4.50649 0 6.14108 0 9.41028V11.4103C0 14.6795 0 16.3141 0.672766 17.5461C1.17807 18.4715 1.93873 19.2322 2.86413 19.7375C4.09621 20.4103 5.73081 20.4103 9 20.4103C12.2692 20.4103 13.9038 20.4103 15.1359 19.7375C16.0613 19.2322 16.8219 18.4715 17.3272 17.5461C18 16.3141 18 14.6795 18 11.4103V9.41028C18 6.14108 18 4.50649 17.3272 3.27441C16.8219 2.34901 16.0613 1.58835 15.1359 1.08304C13.9038 0.410278 12.2692 0.410278 9 0.410278C5.73081 0.410278 4.09621 0.410278 2.86413 1.08304C1.93873 1.58835 1.17807 2.34901 0.672766 3.27441ZM12.3 15.8103C12.6866 15.8103 13 15.4969 13 15.1103C13 14.7237 12.6866 14.4103 12.3 14.4103L4.7 14.4103C4.3134 14.4103 4 14.7237 4 15.1103C4 15.4969 4.3134 15.8103 4.7 15.8103L12.3 15.8103ZM13 11.1103C13 11.4969 12.6866 11.8103 12.3 11.8103L4.7 11.8103C4.3134 11.8103 4 11.4969 4 11.1103C4 10.7237 4.3134 10.4103 4.7 10.4103L12.3 10.4103C12.6866 10.4103 13 10.7237 13 11.1103ZM8.3 7.8103C8.6866 7.8103 9 7.4969 9 7.1103C9 6.7237 8.6866 6.4103 8.3 6.4103L4.7 6.4103C4.3134 6.4103 4 6.7237 4 7.1103C4 7.4969 4.3134 7.8103 4.7 7.8103L8.3 7.8103Z" fill="#464948"/>
</svg>
