<svg width="20" height="20" viewBox="0 0 20 20" fill="none" xmlns="http://www.w3.org/2000/svg">
<path fill-rule="evenodd" clip-rule="evenodd" d="M11.0085 1.22902C10.4208 0.751908 9.5792 0.751907 8.99152 1.22902L7.26991 2.62674C7.02871 2.82257 6.73571 2.94393 6.42668 2.97602L4.22097 3.20505C3.46806 3.28322 2.87295 3.87833 2.79477 4.63124L2.56575 6.83695C2.53366 7.14598 2.4123 7.43898 2.21647 7.68018L0.818748 9.4018C0.341637 9.98947 0.341637 10.8311 0.818748 11.4187L2.21647 13.1404C2.4123 13.3816 2.53366 13.6746 2.56575 13.9836L2.79477 16.1893C2.87295 16.9422 3.46806 17.5373 4.22097 17.6155L6.42668 17.8445C6.73571 17.8766 7.02871 17.998 7.26991 18.1938L8.99152 19.5915C9.5792 20.0686 10.4208 20.0686 11.0085 19.5915L12.7301 18.1938C12.9713 17.998 13.2643 17.8766 13.5733 17.8445L15.779 17.6155C16.5319 17.5373 17.127 16.9422 17.2052 16.1893L17.4342 13.9836C17.4663 13.6746 17.5877 13.3816 17.7835 13.1404L19.1813 11.4187C19.6584 10.8311 19.6584 9.98947 19.1813 9.4018L17.7835 7.68018C17.5877 7.43898 17.4663 7.14598 17.4342 6.83695L17.2052 4.63124C17.127 3.87833 16.5319 3.28322 15.779 3.20505L13.5733 2.97602C13.2643 2.94393 12.9713 2.82257 12.7301 2.62674L11.0085 1.22902ZM7.49497 13.9052L13.495 7.90524C13.7683 7.63188 13.7683 7.18866 13.495 6.9153C13.2216 6.64193 12.7784 6.64193 12.505 6.9153L6.50502 12.9153C6.23166 13.1887 6.23166 13.6319 6.50502 13.9052C6.77839 14.1786 7.22161 14.1786 7.49497 13.9052ZM12.191 13.4103C12.191 12.9684 12.5491 12.6103 12.991 12.6103H13.009C13.4508 12.6103 13.809 12.9684 13.809 13.4103C13.809 13.8521 13.4508 14.2103 13.009 14.2103H12.991C12.5491 14.2103 12.191 13.8521 12.191 13.4103ZM6.991 6.61027C6.54917 6.61027 6.191 6.96844 6.191 7.41027C6.191 7.8521 6.54917 8.21027 6.991 8.21027H7.009C7.45083 8.21027 7.809 7.8521 7.809 7.41027C7.809 6.96844 7.45083 6.61027 7.009 6.61027H6.991Z" fill="#464948"/>
</svg>
